<svg width="269" height="34" viewBox="0 0 269 34" fill="none" xmlns="http://www.w3.org/2000/svg">
<path d="M9.70068 15.1491C9.5678 15.0162 9.43491 14.8833 9.30203 14.8833C9.16914 14.8833 9.03625 14.7504 8.77048 14.7504C8.6376 14.7504 8.50471 14.8833 8.37182 14.8833C8.23894 15.0162 8.10605 15.1491 8.10605 15.282L0.132886 31.3612C0 31.627 0 31.7598 0 31.8927C0 32.0256 0 32.1585 0.132886 32.2914C0.265772 32.4243 0.398658 32.5572 0.531544 32.6901C0.66443 32.8229 0.797317 32.8229 1.06309 32.8229H12.3584C12.4913 32.8229 12.7571 32.8229 12.8899 32.6901C13.0228 32.5572 13.1557 32.4243 13.2886 32.2914C15.5477 27.3746 13.953 19.6672 9.70068 15.1491Z" fill="black"/>
<path d="M15.6805 0.531544C13.6872 3.58792 12.4912 7.17585 12.2254 10.8967C11.9596 14.6175 12.757 18.2054 14.3516 21.5275L19.7999 32.2913C19.9328 32.4242 20.0657 32.5571 20.1986 32.69C20.3315 32.8229 20.4644 32.8229 20.7301 32.8229H32.0254C32.1583 32.8229 32.2912 32.8229 32.4241 32.69C32.557 32.5571 32.6899 32.5571 32.6899 32.2913C32.8228 32.1584 32.8228 32.0256 32.8228 31.8927C32.8228 31.7598 32.8228 31.6269 32.6899 31.494L17.2751 0.531544C17.1422 0.398658 17.1422 0.265772 16.8764 0.132886C16.6107 0 16.6107 0 16.4778 0C16.3449 0 16.0791 0 15.9462 0.132886C15.8133 0.265772 15.8133 0.398658 15.6805 0.531544Z" fill="black"/>
<path d="M253.015 17.674L261.121 32.823H268.43V5.84717H262.716V23.2552L260.59 18.2056L254.078 5.84717H245.042V32.823H250.756V12.2257L253.015 17.674Z" fill="black"/>
<path d="M208.098 5.84717H201.852V32.823H208.098V5.84717Z" fill="black"/>
<path d="M194.549 24.8496C194.549 20.0657 192.024 17.9395 184.981 16.3449C181.127 15.5476 180.064 14.6174 180.064 13.4214C180.064 11.8268 181.526 11.1623 184.051 11.1623C187.24 11.1623 190.296 12.0925 193.22 13.4214V7.30865C190.429 5.97979 187.373 5.44824 184.316 5.44824C177.273 5.44824 173.686 8.50462 173.686 13.4214C173.686 17.408 175.546 20.5973 182.722 21.9261C187.107 22.8563 187.904 23.5207 187.904 24.9825C187.904 26.4442 186.974 27.2416 183.918 27.2416C180.197 27.1087 176.609 26.1785 173.42 24.451V30.9624C175.546 32.0255 178.469 33.2214 183.918 33.2214C191.492 33.2214 194.549 29.8993 194.549 24.8496Z" fill="black"/>
<path d="M168.362 24.8496C168.362 20.0657 165.837 17.9395 158.794 16.3449C154.941 15.5476 153.878 14.6174 153.878 13.4214C153.878 11.8268 155.339 11.1623 157.864 11.1623C161.053 11.1623 164.11 12.0925 167.033 13.4214V7.30865C164.243 5.97979 161.186 5.44824 158.13 5.44824C151.087 5.44824 147.499 8.50462 147.499 13.4214C147.499 17.408 149.36 20.5973 156.668 21.9261C161.053 22.8563 161.851 23.5207 161.851 24.9825C161.851 26.4442 160.921 27.2416 157.864 27.2416C154.143 27.1087 150.555 26.1785 147.366 24.451V30.9624C149.492 32.0255 152.416 33.2214 157.864 33.2214C165.306 33.2214 168.362 29.8993 168.362 24.8496Z" fill="black"/>
<path d="M104.847 26.9761V5.84717H98.4689V32.823H111.359L113.352 26.9761H104.847Z" fill="black"/>
<path d="M86.2408 32.823V11.6942H93.6824V5.84717H72.9521V11.6942H79.9951V32.823H86.2408Z" fill="black"/>
<path d="M63.6567 5.84717H55.2849L45.85 32.823H53.1587L54.4876 28.3049C57.8097 29.2351 61.2648 29.2351 64.5869 28.3049L65.9158 32.823H73.0916L63.6567 5.84717ZM59.5372 23.3881C58.3413 23.3881 57.1453 23.2553 56.0822 22.8566L59.5372 11.0297L62.9923 22.8566C61.9292 23.2553 60.7332 23.3881 59.5372 23.3881Z" fill="black"/>
<path d="M133.817 5.84717H125.446L116.011 32.823H123.187L124.515 28.3049C127.838 29.2351 131.293 29.2351 134.615 28.3049L135.944 32.823H143.119L133.817 5.84717ZM129.698 23.3881C128.502 23.3881 127.306 23.2553 126.243 22.8566L129.698 11.0297L133.153 22.8566C131.957 23.2553 130.761 23.3881 129.698 23.3881Z" fill="black"/>
<path d="M230.819 5.84717H222.447L213.012 32.823H220.188L221.517 28.3049C224.839 29.2351 228.294 29.2351 231.616 28.3049L232.945 32.823H240.121L230.819 5.84717ZM226.699 23.3881C225.503 23.3881 224.307 23.2553 223.244 22.8566L226.699 11.0297L230.154 22.8566C229.091 23.2553 227.895 23.3881 226.699 23.3881Z" fill="black"/>
</svg>
