<svg width="160" height="32" viewBox="0 0 160 32" fill="none" xmlns="http://www.w3.org/2000/svg">
<g clip-path="url(#clip0_4_4114)">
<path d="M82.5599 18.5171C82.5599 26.304 89.0163 32 97.2188 32C105.421 32 111.885 26.304 111.885 18.5171V0.62668H103.942V17.5948C103.942 21.7982 101.027 24.6285 97.1974 24.6285C93.3673 24.6285 90.4525 21.8123 90.4525 17.5948V0.62668H82.5108L82.5599 18.5171ZM133.104 7.78694H142.581V31.4093H150.523V7.78694H160V0.61257H133.104L133.104 7.78694ZM127.972 0.61257H120.03V31.4085H127.972V0.61257ZM50.4748 7.78694H59.9516V31.4093H67.8936V7.78694H77.3632V0.61257H50.4748V7.78694ZM8.80841 0.61257H0.866455V31.4085H8.80841V0.61257ZM46.2926 13.476C46.2926 5.68885 39.8361 0 31.6268 0C23.4173 0 16.9611 5.68885 16.9611 13.476V31.4085H24.903V14.4404C24.903 10.237 27.818 7.40671 31.6481 7.40671C35.4782 7.40671 38.3931 10.2229 38.3931 14.4404V31.4085H46.3351L46.2858 13.476H46.2926Z" fill="black"/>
</g>
<defs>
<clipPath id="clip0_4_4114">
<rect width="159.135" height="32" fill="white" transform="translate(0.865479)"/>
</clipPath>
</defs>
</svg>
