<?xml version="1.0" encoding="utf-8"?>
<!-- Generator: Adobe Illustrator 26.0.1, SVG Export Plug-In . SVG Version: 6.00 Build 0)  -->
<svg version="1.1" id="Layer_1" xmlns="http://www.w3.org/2000/svg" xmlns:xlink="http://www.w3.org/1999/xlink" x="0px" y="0px"
	 viewBox="0 0 693.8 150" style="enable-background:new 0 0 693.8 150;" xml:space="preserve">
<style type="text/css">
	.st0{fill:#171321;}
</style>
<g id="LOGO">
	<path class="st0" d="M153.2,59.4l-0.2-0.6L131.8,3.5c-0.4-1.1-1.2-2-2.2-2.6c-2.6-1.7-6.1-0.9-7.7,1.7c-0.3,0.5-0.5,1-0.7,1.5
		l-14.3,43.8H48.9L34.6,4.1c-0.8-3-3.9-4.7-6.9-3.9c-0.5,0.1-1,0.4-1.5,0.7c-1,0.6-1.8,1.5-2.2,2.6L2.8,58.8l-0.2,0.6
		c-6.3,16.4-0.9,34.9,13.1,45.5l0.1,0.1l0.2,0.1l32.2,24.2l16,12.1l9.7,7.4c2.3,1.8,5.6,1.8,7.9,0l9.7-7.4l16-12.1l32.5-24.3
		l0.1-0.1C154.1,94.3,159.4,75.8,153.2,59.4z"/>
	<path class="st0" d="M280.1,56.5h22.8c-3.8-24.2-24.8-41.1-52.1-41.1c-32.3,0-56.5,23.7-56.5,63.5c0,39.1,23.1,63.3,57.2,63.3
		c30.5,0,52.4-19.6,52.4-51.5V75.9h-50.1v17.5h28.4c-0.4,17.6-12.1,28.7-30.7,28.7c-20.7,0-34.8-15.5-34.8-43.4
		c0-27.8,14.4-43.2,34.3-43.2C266,35.5,276.2,43.4,280.1,56.5z"/>
	<path class="st0" d="M319,140.5h21.8V48H319V140.5z M330,33.3c6.9,0,12.6-5.3,12.6-11.8S336.9,9.6,330,9.6s-12.6,5.3-12.6,11.9
		S322.9,33.3,330,33.3L330,33.3z"/>
	<path class="st0" d="M406.1,48h-18.3V25.8H366V48h-13.1v16.9H366v51.5c-0.1,17.4,12.5,26,28.9,25.5c4.4-0.1,8.7-0.8,12.8-2.2
		l-3.7-17.1c-2.1,0.5-4.2,0.8-6.4,0.9c-5.5,0-9.9-1.9-9.9-10.7V64.8h18.3V48z"/>
	<path class="st0" d="M423,140.5h76.7v-18.7h-54.3V17.1H423V140.5z"/>
	<path class="st0" d="M541.4,142.4c14.5,0,23.2-6.8,27.2-14.6h0.7v12.7h21V78.6c0-24.5-19.9-31.8-37.6-31.8
		c-19.5,0-34.4,8.7-39.2,25.5l20.4,2.9c2.2-6.3,8.3-11.7,19-11.7c10.1,0,15.7,5.2,15.7,14.3v0.4c0,6.3-6.6,6.6-22.9,8.3
		c-18,1.9-35.1,7.3-35.1,28.1C510.5,132.7,523.8,142.4,541.4,142.4z M548.6,126.4c-9.1,0-15.6-4.2-15.6-12.2c0-8.4,7.3-11.9,17-13.3
		c5.7-0.8,17.2-2.2,20-4.5v10.9C570.1,117.6,561.7,126.3,548.6,126.4L548.6,126.4z"/>
	<path class="st0" d="M606.4,140.5h21.5v-14.6h1.3c3.4,6.8,10.6,16.2,26.5,16.2c21.8,0,38.1-17.3,38.1-47.8
		c0-30.9-16.8-47.6-38.2-47.6c-16.3,0-23.1,9.8-26.5,16.5h-0.9V17.1h-21.8V140.5z M627.8,94.2c0-18,7.7-29.6,21.8-29.6
		c14.5,0,22,12.4,22,29.6s-7.6,30-22,30C635.6,124.2,627.8,112.2,627.8,94.2L627.8,94.2z"/>
</g>
</svg>
